<svg width="80" height="80" viewBox="0 0 80 80" fill="none" xmlns="http://www.w3.org/2000/svg">
<path d="M34.3432 5.65685C37.4673 2.53265 42.5327 2.53266 45.6569 5.65685L74.3432 34.3432C77.4673 37.4673 77.4673 42.5327 74.3431 45.6569L45.6568 74.3432C42.5327 77.4673 37.4673 77.4673 34.3431 74.3431L5.65685 45.6568C2.53265 42.5327 2.53266 37.4673 5.65685 34.3431L34.3432 5.65685Z" fill="#7189A2"/>
<path d="M34.668 49.3337H44.0013C44.3549 49.3337 44.6941 49.1932 44.9441 48.9431C45.1942 48.6931 45.3346 48.3539 45.3346 48.0003V40.0003M45.3346 40.0003V32.0003C45.3346 31.6467 45.1942 31.3076 44.9441 31.0575C44.6941 30.8075 44.3549 30.667 44.0013 30.667H34.668M45.3346 40.0003H36.0013" stroke="white" stroke-width="2.66667" stroke-linecap="square"/>
</svg>
