<svg width="80" height="80" viewBox="0 0 80 80" fill="none" xmlns="http://www.w3.org/2000/svg">
<path d="M34.3432 5.65685C37.4673 2.53265 42.5327 2.53266 45.6569 5.65685L74.3432 34.3432C77.4673 37.4673 77.4673 42.5327 74.3431 45.6569L45.6568 74.3432C42.5327 77.4673 37.4673 77.4673 34.3431 74.3431L5.65685 45.6568C2.53265 42.5327 2.53266 37.4673 5.65685 34.3431L34.3432 5.65685Z" fill="#7189A2"/>
<path d="M34.668 30.667H44.0013C44.3549 30.667 44.6941 30.8075 44.9441 31.0575C45.1942 31.3076 45.3346 31.6467 45.3346 32.0003V38.667C45.3346 39.0206 45.1942 39.3598 44.9441 39.6098C44.6941 39.8598 44.3549 40.0003 44.0013 40.0003H36.0013C35.6477 40.0003 35.3085 40.1408 35.0585 40.3909C34.8084 40.6409 34.668 40.98 34.668 41.3337V49.3337H45.3346" stroke="white" stroke-width="2.66667" stroke-linecap="square"/>
</svg>
