<svg width="139" height="139" viewBox="0 0 139 139" fill="none" xmlns="http://www.w3.org/2000/svg">
<circle cx="69.3279" cy="69.3279" r="65.3279" fill="url(#paint0_linear_1499_651)" stroke="white" stroke-width="8"/>
<path d="M109.363 31.9434L94.8756 44.0313L92.6769 42.5484L97.3405 28.1005L85.5635 37.751L83.3718 36.3042L89.3157 18.4234L91.4066 19.8335L86.0914 34.7828L98.3045 24.4856L100.503 25.9684L95.3895 40.9909L107.25 30.5187L109.363 31.9434ZM106.349 45.2175C107.686 44.6424 108.973 44.4098 110.209 44.5199C111.461 44.6231 112.568 45.0246 113.529 45.7245C114.497 46.4403 115.231 47.3794 115.731 48.5418C116.224 49.6884 116.405 50.7897 116.274 51.8459C116.143 52.9021 115.793 53.7981 115.222 54.534L117.611 53.5069L118.556 55.7044L105.466 61.3325L104.522 59.135L106.958 58.0874C106.009 57.9861 105.094 57.6151 104.215 56.9743C103.359 56.3426 102.687 55.4615 102.201 54.3309C101.701 53.1684 101.536 51.9942 101.705 50.8082C101.875 49.6223 102.361 48.536 103.163 47.5496C103.965 46.5631 105.027 45.7858 106.349 45.2175ZM111.09 56.3107C112.077 55.8862 112.852 55.3174 113.413 54.6044C113.974 53.8913 114.299 53.1103 114.387 52.2612C114.497 51.4213 114.378 50.5952 114.029 49.7831C113.679 48.971 113.17 48.3127 112.5 47.8082C111.831 47.3038 111.044 47.01 110.14 46.9268C109.237 46.8437 108.291 47.0144 107.304 47.4389C106.301 47.8702 105.51 48.4458 104.933 49.1657C104.372 49.8788 104.036 50.6553 103.925 51.4952C103.831 52.3284 103.958 53.151 104.307 53.9631C104.656 54.7752 105.166 55.4335 105.836 55.938C106.528 56.4515 107.326 56.7499 108.23 56.833C109.149 56.9093 110.103 56.7352 111.09 56.3107ZM118.681 67.3864L110.29 67.7364C109.598 67.7653 109.11 67.9331 108.828 68.2398C108.563 68.5458 108.446 69.0624 108.476 69.7898L108.549 71.5303L106.549 71.6137L106.46 69.4836C106.405 68.1674 106.667 67.1676 107.246 66.4842C107.824 65.8009 108.806 65.4303 110.192 65.3725L118.582 65.0224L118.505 63.178L120.454 63.0967L120.531 64.9411L124.116 64.7916L124.214 67.1555L120.629 67.3051L120.784 71.0198L118.836 71.1011L118.681 67.3864ZM113.102 75.5973C114.512 76.0246 115.654 76.6786 116.528 77.5593C117.419 78.4451 118.004 79.4736 118.283 80.6449C118.557 81.8327 118.498 83.0736 118.106 84.3674C117.598 86.0429 116.774 87.2965 115.634 88.1284C114.49 88.9769 113.143 89.3566 111.594 89.2676L112.333 86.8291C113.233 86.8483 114.027 86.5907 114.714 86.0563C115.396 85.5386 115.888 84.7821 116.19 83.7868C116.582 82.4929 116.451 81.3121 115.796 80.2444C115.158 79.1817 114.026 78.404 112.401 77.9113C110.759 77.4136 109.369 77.4272 108.232 77.9519C107.095 78.4767 106.33 79.386 105.938 80.6799C105.636 81.6752 105.617 82.575 105.881 83.3793C106.144 84.1836 106.669 84.8408 107.456 85.3511L106.717 87.7896C105.435 87.0023 104.536 85.9331 104.022 84.5819C103.524 83.2357 103.524 81.7415 104.022 80.0992C104.414 78.8053 105.054 77.7404 105.941 76.9045C106.823 76.0852 107.881 75.5544 109.113 75.3121C110.346 75.0699 111.676 75.1649 113.102 75.5973ZM106.817 103.883C106.102 104.685 105.281 105.253 104.354 105.588C103.441 105.934 102.48 105.982 101.472 105.733C100.452 105.496 99.4502 104.939 98.4675 104.061L92.2029 98.4684L93.7613 96.7228L99.7738 102.091C100.834 103.037 101.879 103.494 102.908 103.46C103.95 103.438 104.881 102.968 105.701 102.05C106.532 101.119 106.905 100.115 106.819 99.04C106.722 97.9775 106.118 96.9498 105.006 95.9571L99.1292 90.7104L100.705 88.9455L115.057 101.759L113.481 103.524L108.245 98.8488C108.476 99.6827 108.469 100.536 108.224 101.41C107.967 102.296 107.499 103.12 106.817 103.883ZM72.0221 124.369L75.1382 105.252L77.8142 104.711L88.1036 121.122L85.6314 121.621L76.9575 107.431L74.4687 123.875L72.0221 124.369ZM62.8587 122.755C63.3062 122.808 63.6665 123.008 63.9395 123.355C64.2124 123.702 64.3223 124.099 64.2691 124.546C64.2159 124.994 64.0159 125.354 63.6693 125.627C63.3226 125.9 62.9255 126.01 62.478 125.957C62.0477 125.905 61.7047 125.708 61.4489 125.363C61.1759 125.016 61.0661 124.619 61.1193 124.172C61.1725 123.724 61.3724 123.364 61.7191 123.091C62.0486 122.816 62.4284 122.704 62.8587 122.755ZM61.996 120.322L63.6786 106.174L66.028 106.453L64.3454 120.602L61.996 120.322ZM57.5918 111.944C56.9692 113.26 56.1582 114.286 55.1585 115.021C54.1514 115.772 53.056 116.203 51.8721 116.314C50.6726 116.418 49.4931 116.196 48.3336 115.647C47.3307 115.173 46.5096 114.497 45.8701 113.619C45.2232 112.757 44.8505 111.843 44.7518 110.876L41.528 117.692L39.3656 116.669L47.5919 99.2764L49.7543 100.299L48.6093 102.72C49.3955 102.152 50.3224 101.814 51.39 101.705C52.4502 101.613 53.5366 101.829 54.6491 102.355C55.7929 102.896 56.7015 103.671 57.3748 104.68C58.0325 105.681 58.3869 106.817 58.4379 108.088C58.4889 109.358 58.2069 110.644 57.5918 111.944ZM46.6972 106.763C46.2377 107.734 46.0334 108.673 46.0842 109.579C46.135 110.485 46.4084 111.285 46.9043 111.98C47.3771 112.683 48.0131 113.224 48.8122 113.602C49.6113 113.979 50.4289 114.136 51.2648 114.071C52.1008 114.006 52.8851 113.706 53.6177 113.171C54.3504 112.635 54.9464 111.882 55.4059 110.91C55.8728 109.923 56.0846 108.969 56.0412 108.047C55.9903 107.141 55.7285 106.336 55.2557 105.633C54.7755 104.946 54.1358 104.413 53.3367 104.036C52.5375 103.658 51.72 103.501 50.884 103.566C50.025 103.639 49.2291 103.943 48.4965 104.479C47.7565 105.03 47.1567 105.791 46.6972 106.763ZM30.5409 91.6433C30.8915 91.3601 31.2786 91.0807 31.7023 90.8053L38.8589 99.6636C39.8966 98.7138 40.4532 97.6513 40.5288 96.4761C40.58 95.2983 40.2134 94.224 39.4291 93.2533C38.7864 92.4578 38.0707 91.9442 37.2818 91.7124C36.4686 91.4781 35.6647 91.5036 34.8702 91.789L33.2689 89.807C34.5737 89.2431 35.9227 89.1337 37.3158 89.479C38.6953 89.8351 39.9189 90.6738 40.9864 91.9951C41.836 93.0468 42.3626 94.1812 42.5661 95.3984C42.7586 96.6021 42.6141 97.7885 42.1324 98.9576C41.6373 100.137 40.8167 101.19 39.6706 102.116C38.5246 103.042 37.3349 103.625 36.1017 103.863C34.8684 104.102 33.6903 103.995 32.5674 103.543C31.4202 103.088 30.4108 102.322 29.5394 101.243C28.6897 100.192 28.1673 99.076 27.9722 97.8967C27.777 96.7174 27.9097 95.5852 28.3701 94.5001C28.8061 93.4125 29.5297 92.4602 30.5409 91.6433ZM31.6926 93.8548C30.9915 94.4212 30.5167 95.061 30.2684 95.7742C30.0066 96.4982 29.9655 97.2334 30.145 97.9797C30.3002 98.7233 30.6392 99.4188 31.162 100.066C31.9136 100.996 32.8529 101.552 33.9799 101.734C35.0961 101.901 36.2181 101.608 37.346 100.852L31.6926 93.8548ZM34.1508 78.0141C34.4689 79.3103 34.4635 80.561 34.1346 81.7661C33.8016 82.9544 33.1707 83.9838 32.2421 84.8542C31.2925 85.7119 30.1022 86.3164 28.6714 86.6675C27.2573 87.0146 25.9373 87.0173 24.7112 86.6757C23.4641 86.3213 22.4243 85.6841 21.5917 84.7641C20.7422 83.8481 20.1564 82.7337 19.8341 81.4206C19.5119 80.1076 19.5152 78.8485 19.8441 77.6434C20.1562 76.4424 20.7765 75.4067 21.7052 74.5363C22.6297 73.649 23.8074 73.0298 25.2382 72.6786C26.6691 72.3275 28.0101 72.3375 29.2613 72.7086C30.4916 73.0671 31.5335 73.7127 32.387 74.6454C33.2406 75.5782 33.8286 76.7011 34.1508 78.0141ZM32.1307 78.5099C31.9283 77.685 31.5447 76.9582 30.9799 76.3294C30.415 75.7005 29.6917 75.2623 28.81 75.0147C27.9241 74.7502 26.9256 74.7543 25.8146 75.027C24.7035 75.2996 23.8145 75.7498 23.1476 76.3775C22.4807 77.0053 22.0488 77.7181 21.852 78.516C21.6383 79.318 21.6327 80.1315 21.8351 80.9563C22.0417 81.798 22.4253 82.5249 22.986 83.1369C23.5257 83.7361 24.2344 84.1512 25.1121 84.382C25.9897 84.6128 26.984 84.5919 28.0951 84.3192C29.2229 84.0424 30.1245 83.607 30.7997 83.0129C31.4707 82.402 31.9152 81.704 32.133 80.9188C32.3339 80.1377 32.3332 79.3348 32.1307 78.5099ZM38.9473 48.2357L38.0019 50.4046L20.9715 53.3617L34.1994 59.1278L33.2539 61.2967L16.6178 54.0449L17.5632 51.876L34.5698 48.9085L21.3658 43.1528L22.3112 40.9839L38.9473 48.2357ZM46.1532 41.4729C45.1267 42.3259 43.9997 42.8681 42.7721 43.0994C41.5578 43.3197 40.3562 43.2027 39.1673 42.7483C37.9806 42.2695 36.9165 41.4635 35.9748 40.3304C35.0443 39.2106 34.4644 38.0247 34.2353 36.7727C34.0085 35.4963 34.1267 34.2825 34.5899 33.1313C35.042 31.9668 35.7879 30.9525 36.8278 30.0884C37.8676 29.2243 39.0013 28.6765 40.2289 28.4452C41.4454 28.2005 42.6481 28.3054 43.8371 28.7597C45.0393 29.203 46.1113 29.9912 47.0529 31.1244C47.9946 32.2575 48.5722 33.4678 48.7857 34.7553C49.0014 36.0184 48.8766 37.2377 48.4111 38.4133C47.9457 39.5889 47.193 40.6088 46.1532 41.4729ZM44.8238 39.8732C45.4771 39.3303 45.9629 38.6674 46.2813 37.8844C46.5998 37.1015 46.6775 36.2593 46.5145 35.3581C46.3648 34.4457 45.9244 33.5496 45.1932 32.6698C44.4621 31.7899 43.6684 31.1874 42.8122 30.8622C41.956 30.537 41.1261 30.4604 40.3224 30.6324C39.5077 30.7911 38.7738 31.1419 38.1205 31.6847C37.454 32.2386 36.9682 32.9015 36.6631 33.6734C36.3602 34.4209 36.2969 35.2398 36.4733 36.1299C36.6496 37.0201 37.1033 37.9051 37.8345 38.785C38.5768 39.6782 39.3626 40.2984 40.1922 40.6458C41.0351 40.9821 41.8572 41.0764 42.6586 40.9288C43.4489 40.7679 44.1706 40.416 44.8238 39.8732ZM70.3721 18.1385L68.623 32.9613L66.2207 33.4108L60.7667 22.9252L59.4738 34.6735L57.0715 35.1231L50.0549 21.9409L52.4316 21.4961L57.8518 32.6493L59.1274 20.243L61.5041 19.7982L67.1079 30.9435L68.0721 18.569L70.3721 18.1385Z" fill="white"/>
<path d="M81.8702 65.792C82.5106 66.1325 83.0463 66.6409 83.4198 67.2626C83.7934 67.8843 83.9907 68.596 83.9907 69.3213C83.9907 70.0466 83.7934 70.7583 83.4198 71.38C83.0463 72.0017 82.5106 72.5101 81.8702 72.8506L64.7875 82.14C62.0369 83.6373 58.6582 81.6906 58.6582 78.612V60.032C58.6582 56.952 62.0369 55.0066 64.7875 56.5013L81.8702 65.792Z" fill="white"/>
<defs>
<linearGradient id="paint0_linear_1499_651" x1="130.656" y1="69.3279" x2="8" y2="69.3279" gradientUnits="userSpaceOnUse">
<stop stop-color="#7189A2"/>
<stop offset="1" stop-color="#DDB2B5"/>
</linearGradient>
</defs>
</svg>
