<svg width="34" height="35" viewBox="0 0 34 35" fill="none" xmlns="http://www.w3.org/2000/svg">
<path fill-rule="evenodd" clip-rule="evenodd" d="M25 0C27.2101 0 29.3298 0.877974 30.8926 2.44078C32.4554 4.00358 33.3333 6.1232 33.3333 8.33333V21.6667C33.3333 23.8768 32.4554 25.9964 30.8926 27.5592C29.3298 29.122 27.2101 30 25 30H1.66667C1.22464 30 0.800716 29.8244 0.488155 29.5118C0.175595 29.1993 0 28.7754 0 28.3333V8.33333C0 6.1232 0.877974 4.00358 2.44078 2.44078C4.00358 0.877974 6.1232 0 8.33334 0H25ZM11.6667 11.6667C11.2584 11.6667 10.8644 11.8166 10.5594 12.0879C10.2543 12.3591 10.0594 12.7329 10.0117 13.1383L10 13.3333V16.6667C10.0005 17.0915 10.1631 17.5001 10.4548 17.8089C10.7464 18.1178 11.1449 18.3037 11.569 18.3286C11.9931 18.3535 12.4106 18.2155 12.7364 17.9429C13.0621 17.6702 13.2715 17.2835 13.3217 16.8617L13.3333 16.6667V13.3333C13.3333 12.8913 13.1577 12.4674 12.8452 12.1548C12.5326 11.8423 12.1087 11.6667 11.6667 11.6667ZM21.6667 11.6667C21.2246 11.6667 20.8007 11.8423 20.4882 12.1548C20.1756 12.4674 20 12.8913 20 13.3333V16.6667C20 17.1087 20.1756 17.5326 20.4882 17.8452C20.8007 18.1577 21.2246 18.3333 21.6667 18.3333C22.1087 18.3333 22.5326 18.1577 22.8452 17.8452C23.1577 17.5326 23.3333 17.1087 23.3333 16.6667V13.3333C23.3333 12.8913 23.1577 12.4674 22.8452 12.1548C22.5326 11.8423 22.1087 11.6667 21.6667 11.6667Z" fill="white"/>
</svg>
