<svg width="187" height="37" viewBox="0 0 187 37" fill="none" xmlns="http://www.w3.org/2000/svg">
<path d="M148.742 36.2418V11.6235H154.553V14.7559C156.017 12.2267 159.209 10.9145 162.087 10.9145C165.437 10.9145 168.369 12.3784 169.728 15.2639C171.715 12.0292 174.703 10.9145 177.997 10.9145C182.603 10.9145 187 13.7436 187 20.2659V36.2383H181.138V21.2289C181.138 18.3504 179.622 16.1775 176.218 16.1775C173.026 16.1775 170.93 18.6009 170.93 21.6416V36.2489H164.962V21.2359C164.962 18.4069 163.497 16.1846 160.042 16.1846C156.799 16.1846 154.754 18.5092 154.754 21.6486V36.2559H148.738V36.2418H148.742ZM136.81 21.2253C136.707 18.3469 134.713 15.7683 130.528 15.7683C126.707 15.7683 124.508 18.5974 124.304 21.2253H136.81ZM142.62 29.2151C141.258 33.5115 137.23 37.0002 131.105 37.0002C124.198 37.0002 118.069 32.1499 118.069 23.8074C118.069 16.0223 124.037 10.8687 130.473 10.8687C138.322 10.8687 142.927 15.8706 142.927 23.6593C142.927 24.6188 142.825 25.4266 142.77 25.5289H124.136C124.293 29.2715 127.328 31.9524 131.097 31.9524C134.761 31.9524 136.645 30.0828 137.482 27.6559L142.62 29.2151ZM108.124 21.2253C108.022 18.3469 106.028 15.7683 101.842 15.7683C98.0217 15.7683 95.823 18.5974 95.6112 21.2253H108.124ZM113.931 29.2151C112.569 33.5115 108.54 37.0002 102.419 37.0002C95.5089 37.0002 89.3839 32.1499 89.3839 23.8074C89.3839 16.0223 95.3518 10.8687 101.787 10.8687C109.636 10.8687 114.242 15.8706 114.242 23.6593C114.242 24.6188 114.139 25.4266 114.085 25.5289H95.4541C95.6112 29.2715 98.6463 31.9524 102.415 31.9524C106.079 31.9524 107.963 30.0828 108.8 27.6559L113.931 29.2151ZM86.557 17.4333C85.874 17.3345 85.1947 17.2816 84.5701 17.2816C79.8622 17.2816 77.7147 19.9096 77.7147 24.5094V36.2383H71.6445V11.62H77.5576V15.5637C78.7629 12.8864 81.5898 11.3166 84.939 11.3166C85.6731 11.3166 86.3013 11.4189 86.5643 11.4683V17.4298H86.557V17.4333ZM51.279 31.8431C55.2564 31.8431 58.0322 28.559 58.0322 23.8074C58.0322 19.0559 55.3112 16.0223 51.279 16.0223C47.1957 16.0223 44.3724 19.0559 44.3724 23.8074C44.3724 28.5096 47.0423 31.8431 51.279 31.8431ZM50.596 36.9015C43.1124 36.9015 38.2949 31.1905 38.2949 23.8074C38.2949 16.6819 43.1635 10.918 50.4901 10.918C54.9898 10.918 57.2944 13.1933 57.9738 14.8618V11.6271H63.8869V31.7478C63.8869 33.7726 64.0987 35.7409 64.1499 36.2453H58.339C58.2367 35.6915 58.076 34.3758 58.076 32.7073C56.9365 35.0813 54.2666 36.9015 50.596 36.9015Z" fill="#DDB2B5"/>
<path d="M9.34228 1.53809C11.541 1.53809 13.3233 3.25597 13.3233 5.38304C13.3233 7.50658 11.5446 9.17508 9.34228 9.17508C7.19471 9.17508 5.41602 7.50658 5.41602 5.38304C5.41967 3.26303 7.19471 1.53809 9.34228 1.53809Z" fill="#DDB2B5"/>
<path d="M18.5466 31.1863C12.9877 31.1863 7.7101 27.7576 6.50117 21.2388H0C1.32215 31.1651 9.40844 36.9996 18.5466 36.9996C28.0208 36.9996 33.671 31.1863 35.3474 25.119L29.5876 23.2988C28.3349 27.3413 24.7738 31.1863 18.5466 31.1863Z" fill="#DDB2B5"/>
<path d="M33.9012 7.98621C31.8413 4.1201 28.0465 1.01944 22.5424 0L21.1582 5.58753C24.9639 6.30008 27.4183 8.55061 28.6674 11.4149L33.9012 7.98621Z" fill="#DDB2B5"/>
</svg>
