<svg width="134" height="43" viewBox="0 0 134 43" fill="none" xmlns="http://www.w3.org/2000/svg">
<g clip-path="url(#clip0_1732_956)">
<mask id="mask0_1732_956" style="mask-type:luminance" maskUnits="userSpaceOnUse" x="0" y="0" width="134" height="43">
<path d="M133.252 0H0V43H133.252V0Z" fill="white"/>
</mask>
<g mask="url(#mask0_1732_956)">
<path d="M92.8899 12.2998C93.5131 12.2998 93.9993 11.7248 93.9993 11.0498C93.9993 10.3498 93.5256 9.7998 92.8899 9.7998C92.279 9.7998 91.793 10.3748 91.793 11.0498C91.793 11.7373 92.279 12.2998 92.8899 12.2998Z" fill="#DDB2B5"/>
<path d="M110.615 25.1002C110.615 25.8001 111.089 26.3501 111.712 26.3501C112.323 26.3501 112.809 25.7752 112.809 25.1002C112.809 24.4001 112.335 23.8501 111.712 23.8501C111.101 23.8501 110.615 24.4126 110.615 25.1002Z" fill="#DDB2B5"/>
<path d="M107.875 25.1002C107.875 25.8001 108.349 26.3501 108.972 26.3501C109.595 26.3501 110.081 25.7752 110.081 25.1002C110.081 24.4001 109.608 23.8501 108.972 23.8501C108.361 23.8501 107.875 24.4126 107.875 25.1002Z" fill="#DDB2B5"/>
<path d="M119.628 22.4123V22.3373H120.862H121.261H123.493H123.53H131.981V20.4248H130.685C128.067 20.4248 126.933 19.2498 126.933 17.6873C126.933 16.2749 127.781 15.3498 129.015 15.3498C129.975 15.3498 130.735 15.7374 130.735 15.7374L131.121 13.8123C131.121 13.8123 130.174 13.4624 129.065 13.4624C126.135 13.4624 124.727 15.4123 124.727 17.6873C124.727 18.9249 125.288 19.9499 126.023 20.4248H123.53H123.493H121.261H120.862H119.628V13.6873H117.447V22.5373C117.447 24.5248 116.786 25.1123 115.677 25.1123C115.153 25.1123 114.717 25.0248 114.343 24.8874L114.156 26.8248C114.568 26.9374 115.029 27.0124 115.54 27.0124C118.918 27.0124 119.628 24.7624 119.628 22.4123Z" fill="#DDB2B5"/>
<path d="M128.604 12.1491C129.227 12.1491 129.751 11.5741 129.751 10.8741C129.751 10.1741 129.239 9.59912 128.604 9.59912C127.981 9.59912 127.457 10.1741 127.457 10.8741C127.469 11.5991 127.981 12.1491 128.604 12.1491Z" fill="#DDB2B5"/>
<path d="M95.6321 12.2998C96.2429 12.2998 96.729 11.7248 96.729 11.0498C96.729 10.3498 96.2553 9.7998 95.6321 9.7998C95.0213 9.7998 94.5352 10.3748 94.5352 11.0498C94.5352 11.7373 95.0213 12.2998 95.6321 12.2998Z" fill="#DDB2B5"/>
<path d="M102.69 12.1491C103.313 12.1491 103.837 11.5741 103.837 10.8741C103.837 10.1741 103.326 9.59912 102.69 9.59912C102.067 9.59912 101.543 10.1741 101.543 10.8741C101.555 11.5991 102.067 12.1491 102.69 12.1491Z" fill="#DDB2B5"/>
<path d="M111.825 32.4246H108.796V28.5996H106.59V38.6122H108.796V34.6371H111.825V38.6122H114.032V28.5996H111.825V32.4246Z" fill="#DDB2B5"/>
<path d="M121.56 35.1741C121.56 35.9367 121.211 36.5741 120.04 36.5741C118.868 36.5741 118.519 35.9367 118.519 35.1741V28.5991H116.312V35.3742C116.312 37.5242 117.908 38.8116 120.04 38.8116C122.171 38.8116 123.767 37.5242 123.767 35.3742V28.5991H121.56V35.1741Z" fill="#DDB2B5"/>
<path d="M88.4531 30.7996H90.9336V38.6122H93.1274V30.7996H95.6205V28.5996H88.4531V30.7996Z" fill="#DDB2B5"/>
<path d="M132.032 33.4124C132.556 32.9374 132.867 32.2874 132.867 31.4499C132.867 29.7249 131.509 28.5874 129.826 28.5874H126.049V38.6H130.1C131.82 38.6 133.216 37.4375 133.216 35.6624C133.216 34.6624 132.755 33.8874 132.032 33.4124ZM128.255 30.7374H129.826C130.337 30.7374 130.661 31.1124 130.661 31.6249C130.661 32.1375 130.312 32.5124 129.826 32.5124H128.255V30.7374ZM130.113 36.4624H128.268V34.5499H130.113C130.661 34.5499 131.023 34.9499 131.023 35.5124C131.01 36.0624 130.661 36.4624 130.113 36.4624Z" fill="#DDB2B5"/>
<path d="M98.9502 28.5991L95.6719 38.6117H98.09L98.5762 37.0367H102.166L102.652 38.6117H105.071L101.792 28.5991H98.9502ZM99.2243 34.8867L100.359 31.2116L101.493 34.8867H99.2243Z" fill="#DDB2B5"/>
<path d="M60.357 22.3374H67.4372H68.0355H69.3569H69.3943H81.0491V20.3748C81.0491 14.9998 78.6807 12.7998 74.5547 12.7998C73.246 12.7998 71.7252 13.0998 70.5535 13.5123L70.7529 15.2247C71.8124 14.8373 73.1712 14.5498 74.293 14.5498C77.5838 14.5498 78.9798 16.4124 78.9798 20.2123V20.4373H77.2472V19.9623C77.2472 17.8248 76.3872 16.1873 74.2183 16.1873C72.2363 16.1873 71.0895 17.5498 71.0895 19.2998C71.0895 20.0498 71.5258 20.5373 71.5258 20.5373C71.5258 20.5373 71.2266 20.4498 70.7778 20.4498H69.4067H69.3693H68.048H67.4372H65.0189V13.7124H62.8375V20.4498H60.5938C57.5024 20.4498 56.4929 19.2373 56.4929 16.6373C56.4929 15.6623 56.7047 14.4498 57.0538 13.5998L54.7227 14.0248C54.4735 14.7749 54.2989 15.9248 54.2989 16.9124C54.2864 20.2623 55.8571 22.3374 60.357 22.3374ZM74.0686 17.6998C75.0284 17.6998 75.4772 18.6248 75.4772 19.9248V20.4998H74.4301C73.57 20.4998 72.872 19.9873 72.872 19.0247C72.872 18.2873 73.3083 17.6998 74.0686 17.6998Z" fill="#DDB2B5"/>
<path d="M58.8477 25.1001C58.8477 25.8126 59.3587 26.3751 59.9944 26.3751C60.6177 26.3751 61.1412 25.8001 61.1412 25.1001C61.1412 24.3877 60.6301 23.8252 59.9944 23.8252C59.3587 23.8252 58.8477 24.4002 58.8477 25.1001Z" fill="#DDB2B5"/>
<path d="M107.561 22.3375H107.599H112.846V13.6876H110.665V20.425H107.599H107.561H106.788H105.629H103.784V13.6876H101.603V20.425H99.3219H99.2845H98.5242H97.3523H95.6696V13.6876H93.4757V20.425H91.2071H91.1697H90.4592H89.2376H87.4177V9.375H85.2363V22.3375H89.2376H90.4592H91.1697H91.2071H97.3523H98.5242H99.2845H99.3219H105.629H106.788H107.561Z" fill="#DDB2B5"/>
<path d="M77.0717 28.5991H74.8652V38.6117H77.0717V28.5991Z" fill="#DDB2B5"/>
<path d="M58.836 35.0366H61.4163C61.0673 35.9991 60.2321 36.5866 58.9483 36.5866C57.0784 36.5866 55.9192 35.3365 55.9192 33.6365C55.9192 31.8741 57.1283 30.6366 58.7612 30.6366C59.8457 30.6366 60.7183 31.1491 61.1172 31.8116L62.9869 30.6991C62.1767 29.349 60.6186 28.4116 58.7737 28.4116C55.9317 28.4116 53.7129 30.7241 53.7129 33.6365C53.7129 36.5116 55.8943 38.8241 58.9233 38.8241C61.6283 38.8241 63.6724 36.9615 63.6724 33.8991V33.0365H58.836V35.0366Z" fill="#DDB2B5"/>
<path d="M72.8725 32.025C72.8725 30.1249 71.4017 28.5874 69.5692 28.5874H65.7051V38.6H67.9114V35.3125H68.9585L70.7785 38.6H73.1468L71.09 34.9249C72.1495 34.3749 72.8725 33.2624 72.8725 32.025ZM69.5692 33.3124H67.9114V30.7374H69.5692C70.18 30.7374 70.6662 31.2999 70.6662 32.025C70.6662 32.7624 70.1675 33.3124 69.5692 33.3124Z" fill="#DDB2B5"/>
<path d="M84.5639 34.0366L80.8368 28.5991H79.1914V38.6117H81.3977V33.1742L85.1123 38.6117H86.7702V28.5991H84.5639V34.0366Z" fill="#DDB2B5"/>
<path d="M40.4492 35.8002L46.1583 42.3252L49.9477 39.0502V30.3502L40.4492 28.8252V35.8002Z" fill="#DDB2B5"/>
<path d="M18.4496 20.1497C14.6353 22.1248 12.8278 19.6622 12.8278 19.6622C9.96083 16.5373 12.1298 13.1498 12.1298 13.1498L5.76009 6.1123C2.28232 8.6998 0.0136719 12.9748 0.0136719 17.8123C0.0136719 19.4498 0.275439 21.0248 0.761579 22.4873L23.9467 26.1874L18.462 20.1373C18.4496 20.1373 18.4496 20.1497 18.4496 20.1497Z" fill="#DDB2B5"/>
<path d="M12.1302 13.1492C14.9099 11.9992 16.5304 12.9742 17.2783 13.6868L17.8267 13.1367C17.7644 13.0867 17.7021 13.0367 17.6398 12.9992C17.4777 12.8742 17.2907 12.7742 17.1163 12.6617C16.9417 12.5617 16.7547 12.4742 16.5803 12.3992C16.4057 12.3242 16.2187 12.2492 16.0443 12.1992C15.8698 12.1367 15.7077 12.0992 15.5456 12.0492C15.234 11.9742 14.9598 11.9242 14.7727 11.8867C14.673 11.8742 14.5983 11.8617 14.5484 11.8492C14.4986 11.8367 14.4612 11.8367 14.4612 11.8367C14.4612 11.8367 14.5733 11.7992 14.7603 11.7492C14.9598 11.7117 15.2464 11.6742 15.583 11.6742C15.9321 11.6742 16.3433 11.7242 16.7547 11.8617C16.8669 11.8867 16.9667 11.9242 17.0664 11.9742C17.1786 12.0117 17.2783 12.0617 17.378 12.1117C17.5899 12.2117 17.7893 12.3367 17.9887 12.4742C18.0761 12.5367 18.1633 12.6117 18.2506 12.6742L22.7006 8.21171L18.3253 3.82422V4.43672C16.8295 3.83672 15.209 3.51172 13.5138 3.51172C10.6219 3.51172 7.94191 4.47422 5.74805 6.11171L12.1302 13.1492Z" fill="#DDB2B5"/>
<path d="M24.5576 26.2873L24.6698 26.0123L29.0078 14.5374L22.7253 8.2373L18.2753 12.6998C18.375 12.7873 18.4622 12.8623 18.5495 12.9498C18.7115 13.1123 18.8612 13.2998 18.9858 13.4749C19.1104 13.6623 19.2226 13.8373 19.3098 14.0124C19.3598 14.0998 19.3972 14.1873 19.4345 14.2748C19.4719 14.3623 19.5093 14.4373 19.5342 14.5249C19.5966 14.6873 19.6339 14.8373 19.6713 14.9748C19.7087 15.1124 19.7336 15.2248 19.7461 15.3248C19.771 15.5248 19.7835 15.6374 19.7835 15.6374C19.7835 15.6374 19.7212 15.5373 19.6215 15.3748C19.5716 15.2873 19.5093 15.1873 19.447 15.0749C19.3847 14.9623 19.2973 14.8373 19.2101 14.6998C19.1727 14.6248 19.1104 14.5624 19.0606 14.4872C19.0107 14.4123 18.9609 14.3373 18.8985 14.2748C18.7863 14.1248 18.6616 13.9749 18.537 13.8248C18.4622 13.7498 18.3999 13.6748 18.3376 13.6123C18.2629 13.5498 18.2004 13.4624 18.1132 13.3998C18.0135 13.3123 17.9138 13.2248 17.8141 13.1498L17.2656 13.6998C17.6021 14.0249 17.7518 14.2873 17.7518 14.2873C19.7586 16.8373 18.537 19.9124 18.4498 20.1373L23.9344 26.1873L24.5078 26.2748L24.5576 26.2873Z" fill="#DDB2B5"/>
<path d="M33.2469 3.29941V-0.0380859H18.3262V3.82442L29.0088 14.5369L33.2469 3.29941Z" fill="#DDB2B5"/>
<path d="M33.2455 14.9872V3.28711L28.9949 14.5246L24.6571 25.9996L24.5449 26.2747L33.3078 27.6746V26.3746C33.3078 24.3996 34.9034 22.7996 36.8729 22.7996C38.8425 22.7996 40.438 24.3996 40.438 26.3746V28.8121L49.9239 30.3246V24.6372C49.9988 21.312 48.4032 18.7622 48.4032 18.7622C42.5695 10.1871 33.2455 14.9872 33.2455 14.9872Z" fill="#DDB2B5"/>
<path d="M24.557 26.2871L24.4697 26.7871L21.877 41.0872C23.111 40.4246 23.7093 39.8246 23.7093 39.8246V42.2247H33.3199V38.9372V27.6872L24.557 26.2871Z" fill="#DDB2B5"/>
<path d="M24.5583 26.2868L24.496 26.2743L23.9226 26.1868L17.5529 25.1743L0.75 22.4868C1.72229 25.4617 3.60452 27.9868 6.03521 29.6993L3.62944 33.2868L11.7816 42.6867L11.9437 42.8743C16.7303 43.2742 20.0211 42.0868 21.8783 41.0742L24.4711 26.7743L24.5583 26.2868ZM18.438 31.4993C18.2511 31.8118 18.0017 32.0868 17.7275 32.3243C16.9172 33.0117 15.8951 33.3243 14.848 33.4118C14.15 33.4743 13.4395 33.4243 12.7788 33.3118C11.8439 33.1618 10.9465 32.8493 10.1113 32.4118C9.74981 32.2243 9.40079 32.0117 9.06423 31.7868C8.87726 31.6618 8.69027 31.5368 8.51576 31.3992C8.41604 31.3243 8.32879 31.2618 8.22907 31.1868C8.19167 31.1618 8.09195 31.0493 8.01716 30.9993C7.9673 30.9743 7.94237 30.9618 7.94237 30.9618C7.95484 30.9618 7.97976 30.9743 8.01716 30.9993C8.51576 31.2368 11.5074 32.5743 15.3092 32.0493C16.3688 31.8992 17.5031 31.6118 18.6499 31.0993C18.5751 31.1368 18.4754 31.4367 18.438 31.4993Z" fill="#DDB2B5"/>
</g>
</g>
<defs>
<clipPath id="clip0_1732_956">
<rect width="134" height="43" fill="white"/>
</clipPath>
</defs>
</svg>
