<svg width="108" height="45" viewBox="0 0 108 45" fill="none" xmlns="http://www.w3.org/2000/svg">
<g clip-path="url(#clip0_1732_1028)">
<path d="M53.6978 31.9717L51.0728 10.2567C50.3667 4.41034 45.359 0 39.4244 0H14.354C8.41937 0 3.41157 4.41034 2.70547 10.2567L0.0833268 31.9717C-0.31565 35.2746 0.730467 38.5964 2.95638 41.0842C5.17954 43.5741 8.37887 45 11.7318 45H42.0493C45.3994 45 48.5988 43.5741 50.8247 41.0842C53.0478 38.5971 54.0967 35.2752 53.6978 31.9717ZM46.5073 37.3107C45.3158 38.6427 43.6719 39.3753 41.8799 39.3753H11.9018C10.1071 39.3753 8.46249 38.6427 7.2745 37.3107C6.08306 35.9787 5.54698 34.2725 5.75949 32.5044L8.35218 11.033C8.72439 7.95197 11.3651 5.62466 14.4945 5.62466H39.2845C42.4133 5.62466 45.0546 7.95127 45.4269 11.033L48.0223 32.5044C48.2347 34.2725 47.6953 35.9787 46.5073 37.3107Z" fill="#DDB2B5"/>
<path d="M41.9517 25.3064C41.539 24.6785 40.9049 24.2479 40.166 24.0934C39.4255 23.939 38.6715 24.0798 38.0387 24.4887C30.4904 29.3739 23.1443 29.3732 15.5815 24.488C14.9488 24.0792 14.1926 23.9383 13.4543 24.0941C12.7154 24.2492 12.0819 24.6805 11.6699 25.3084C11.2579 25.9363 11.1167 26.686 11.273 27.4194C11.4293 28.1527 11.8639 28.7813 12.4967 29.1902C17.2227 32.2434 22.0405 33.791 26.8166 33.791C31.5934 33.791 36.4079 32.2427 41.127 29.1888C41.7598 28.7793 42.1937 28.15 42.3493 27.4167C42.5056 26.684 42.3644 25.9343 41.9517 25.3064Z" fill="#DDB2B5"/>
<path d="M106.43 13.5867L103.748 14.5037C104.041 15.4432 104.402 16.7848 104.402 17.5671C104.402 18.4168 103.86 18.9311 102.824 18.9311C101.765 18.9311 101.134 18.6848 101.134 17.2984V14.9058H98.2943V17.2984C98.2943 18.6848 97.664 18.9311 96.537 18.9311C95.4323 18.9311 94.802 18.6848 94.802 17.2984V14.9058H91.94V17.276C91.94 18.6848 91.1732 18.9304 89.5285 18.9304C87.8391 18.9304 87.2528 18.595 87.2528 16.7609V6.49805H84.2558V16.9187C84.2558 18.6181 83.6695 18.9311 81.9801 18.9311C80.6502 18.9311 79.8625 18.6637 79.8625 16.9861V9.29272H77.0447V10.8818C71.7038 11.9757 69.7891 14.1901 69.7891 16.9637C69.7891 19.6011 71.5461 21.3019 74.1148 21.3019C76.0315 21.3019 76.9988 20.34 77.4279 19.0427C77.8113 21.3461 79.1605 22.6863 81.7957 22.6877L81.7996 22.6884C83.8053 22.6884 84.9316 21.7937 85.4045 20.4298C85.9908 21.9502 87.3199 22.6884 89.348 22.6884C91.218 22.6884 92.4345 22.0176 92.9082 20.6311C93.381 22.04 94.5081 22.6884 96.108 22.6884C97.708 22.6884 98.8119 22.0176 99.2624 20.6087C99.7353 22.0176 100.885 22.6884 102.733 22.6884C105.527 22.6884 107.24 20.8767 107.24 17.5896C107.241 16.382 106.903 14.7269 106.43 13.5867ZM77.0454 16.8956C76.5957 17.2535 75.7381 17.5228 74.476 17.5228C73.3264 17.5228 72.1781 17.2106 72.1781 16.4493C72.1781 15.6208 73.3717 14.7942 77.0447 14.1901L77.0454 16.8956Z" fill="#DDB2B5"/>
<path d="M78.5663 8.59822C79.4804 8.59822 80.2333 7.93982 80.2333 7.0147C80.2333 6.03655 79.4442 5.43115 78.5663 5.43115C77.6521 5.43115 76.8809 6.05356 76.8809 7.0147C76.8809 7.99351 77.7054 8.59822 78.5663 8.59822Z" fill="#DDB2B5"/>
<path d="M74.7969 8.59822C75.7113 8.59822 76.4639 7.93982 76.4639 7.0147C76.4639 6.03655 75.6749 5.43115 74.7969 5.43115C73.8824 5.43115 73.1113 6.05356 73.1113 7.0147C73.1113 7.99351 73.9359 8.59822 74.7969 8.59822Z" fill="#DDB2B5"/>
<path d="M61.7148 38.6988L62.1584 36.3075C63.0256 36.9199 64.568 37.4743 65.8589 37.4743C66.977 37.4743 67.6323 37.111 67.6323 36.4987C67.6323 34.8347 61.8115 36.3837 61.8115 32.3482C61.8115 30.2441 63.5657 28.8672 66.399 28.8672C67.9216 28.8672 69.329 29.2883 70.3312 29.8047L69.8493 32.1381C68.9046 31.6407 67.7098 31.1816 66.5533 31.1816C65.4935 31.1816 64.8381 31.5829 64.8381 32.1571C64.8381 33.898 70.6589 32.4061 70.6589 36.1736C70.6589 38.2396 68.6737 39.6927 65.7437 39.6927C63.9894 39.6934 62.582 39.1771 61.7148 38.6988Z" fill="#DDB2B5"/>
<path d="M80.4106 29.2114H83.4562V39.4063H80.4106V37.7233C79.5821 38.9471 78.4065 39.6553 76.8839 39.6553C74.3008 39.6553 71.8145 37.8382 71.8145 34.2994C71.8145 30.7604 74.185 28.9053 76.8839 28.9053C78.3872 28.9053 79.5628 29.4597 80.4106 30.5693V29.2114ZM80.4106 34.2613C79.8521 32.3673 78.7343 31.4115 77.4615 31.4115C76.0935 31.4115 75.033 32.4251 75.033 34.2613C75.033 36.0783 76.112 37.1497 77.4808 37.1497C78.8115 37.1491 79.91 35.9824 80.4106 34.2613Z" fill="#DDB2B5"/>
<path d="M85.6914 39.4066V25.96H88.7362V39.4066H85.6914Z" fill="#DDB2B5"/>
<path d="M90.9727 39.4066V25.96H94.0175V39.4066H90.9727Z" fill="#DDB2B5"/>
<path d="M104.349 29.2114H107.394V39.4063H104.349V37.7233C103.519 38.9471 102.344 39.6553 100.822 39.6553C98.2383 39.6553 95.752 37.8382 95.752 34.2994C95.752 30.7604 98.1226 28.9053 100.822 28.9053C102.325 28.9053 103.5 29.4597 104.349 30.5693V29.2114ZM104.349 34.2613C103.789 32.3673 102.672 31.4115 101.4 31.4115C100.031 31.4115 98.9704 32.4251 98.9704 34.2613C98.9704 36.0783 100.05 37.1497 101.419 37.1497C102.749 37.1491 103.847 35.9824 104.349 34.2613Z" fill="#DDB2B5"/>
</g>
<defs>
<clipPath id="clip0_1732_1028">
<rect width="108" height="45" fill="white"/>
</clipPath>
</defs>
</svg>
