<svg width="142" height="52" viewBox="0 0 142 52" fill="none" xmlns="http://www.w3.org/2000/svg">
<path d="M116.789 50.6838C130.391 50.6838 141.417 39.6424 141.417 26.0221C141.417 12.4017 130.391 1.36035 116.789 1.36035C103.187 1.36035 92.1602 12.4017 92.1602 26.0221C92.1602 39.6424 103.187 50.6838 116.789 50.6838Z" fill="#DDB2B5"/>
<path d="M122.947 37.2905C118.399 37.2905 114.292 34.5454 112.55 30.3346C110.809 26.1237 111.771 21.2777 114.989 18.0551C118.208 14.8324 123.048 13.8684 127.253 15.6124C131.457 17.3564 134.199 21.4654 134.199 26.0229C134.192 32.2432 129.158 37.2831 122.947 37.2905ZM122.947 18.7934C120.027 18.7934 117.395 20.5545 116.277 23.2557C115.16 25.9567 115.777 29.0666 117.842 31.1332C119.907 33.1999 123.012 33.8188 125.709 32.7002C128.407 31.5816 130.166 28.9454 130.166 26.0214C130.161 22.0309 126.932 18.7985 122.947 18.7934Z" fill="white"/>
<path d="M130.165 26.1172C130.148 28.3259 129.587 30.4962 128.53 32.4346C127.472 34.3732 125.952 36.0194 124.105 37.2267C123.719 37.2661 123.332 37.2859 122.945 37.2859C116.735 37.2781 111.701 32.2379 111.693 26.0183C111.693 25.8404 111.697 25.6629 111.707 25.4878H115.748C115.734 25.6629 115.727 25.8381 115.727 26.0183C115.733 29.9883 118.934 33.2109 122.898 33.2382C126.862 33.2653 130.106 30.0864 130.165 26.1172Z" fill="#DDB2B5"/>
<path d="M109.624 15.5662C111.324 15.5662 112.703 14.186 112.703 12.4833C112.703 10.7807 111.324 9.40039 109.624 9.40039C107.923 9.40039 106.545 10.7807 106.545 12.4833C106.545 14.186 107.923 15.5662 109.624 15.5662Z" fill="white"/>
<path d="M118.358 13.6912C120.059 13.6912 121.437 12.311 121.437 10.6083C121.437 8.90566 120.059 7.52539 118.358 7.52539C116.658 7.52539 115.279 8.90566 115.279 10.6083C115.279 12.311 116.658 13.6912 118.358 13.6912Z" fill="white"/>
<path d="M104.625 20.3903L100.94 18.8529L103.972 16.7402L104.625 20.3903ZM134.201 26.0221C134.201 26.6843 134.165 27.3459 134.091 28.0039C133.811 30.4603 133.013 32.829 131.748 34.953C130.484 37.0768 128.784 38.9072 126.76 40.3228C124.736 41.7384 122.434 42.7067 120.007 43.1634C117.581 43.6202 115.085 43.5551 112.686 42.9723C110.286 42.3896 108.038 41.3026 106.09 39.7832C104.142 38.264 102.539 36.3473 101.387 34.1605C100.236 31.9735 99.5616 29.5664 99.4099 27.0986C99.2582 24.631 99.6322 22.1592 100.507 19.8474L104.239 21.401C102.402 26.4121 103.713 32.0369 107.574 35.7168C111.434 39.3968 117.11 40.4262 122.018 38.3459C126.925 36.2656 130.128 31.4593 130.171 26.1248V26.0252C130.174 25.5008 130.381 24.9983 130.747 24.624C131.114 24.2496 131.612 24.0326 132.135 24.0191C132.659 24.0053 133.167 24.1961 133.553 24.5509C133.939 24.9057 134.172 25.3967 134.201 25.9201V25.9228C134.204 25.9569 134.205 25.991 134.205 26.0252L134.201 26.0221Z" fill="white"/>
<path d="M64.3527 6.85013C64.9343 7.47609 65.2638 8.29549 65.2778 9.15034C65.27 9.98597 64.9377 10.7858 64.3527 11.3813C63.7399 11.9868 62.9168 12.3312 62.0559 12.3423C60.3158 12.2936 58.9165 10.8924 58.8679 9.14995C58.879 8.28797 59.2229 7.46375 59.8276 6.85013C60.4223 6.26369 61.2213 5.93156 62.0559 5.92381C62.9085 5.93765 63.7256 6.26772 64.3492 6.85013H64.3527ZM74.9965 17.6701C73.3415 16.0116 71.2327 14.8818 68.9365 14.4233C66.6404 13.9649 64.26 14.1984 62.0965 15.0945C59.9329 15.9905 58.0831 17.5088 56.7812 19.4574C55.4793 21.4061 54.7836 23.6974 54.7821 26.0419C54.7556 28.6194 55.5884 31.1322 57.1488 33.1823L44.8092 33.1796C44.9503 32.978 45.0801 32.7686 45.1978 32.5569C45.8567 31.4009 46.2104 30.0971 46.2252 28.766V12.3442H41.4941V28.7687C41.4941 30.1893 40.3952 31.1771 39.7636 31.6488C38.4599 32.6289 36.6075 33.1823 34.7235 33.1823L30.0981 33.185C31.6062 31.1743 32.4372 28.7359 32.4712 26.2214C32.505 23.7071 31.7402 21.2469 30.2871 19.1962C27.3051 14.988 21.9482 13.1946 17.0376 14.7577C12.1268 16.3207 8.78959 20.8846 8.78182 26.0446C8.7546 28.6224 9.58795 31.1354 11.1528 33.185H7.40353C7.33201 33.185 7.26555 33.1901 7.20142 33.1901C6.22668 33.2053 5.26574 33.4232 4.37954 33.83C3.14826 34.4 2.10636 35.3121 1.37777 36.4579C0.649168 37.6036 0.264525 38.9348 0.26958 40.2931V47.2035C0.27755 47.8258 0.530019 48.4199 0.972304 48.8571C1.41458 49.2944 2.01109 49.5395 2.6326 49.5395C3.25411 49.5395 3.85061 49.2944 4.29289 48.8571C4.73518 48.4199 4.98765 47.8258 4.99562 47.2035V40.2919C4.98474 39.6602 5.23038 39.0511 5.6766 38.6044C6.12281 38.1575 6.7311 37.9116 7.36195 37.9225H66.6444C68.9856 37.9188 71.2733 37.2205 73.2183 35.9155C75.1634 34.6106 76.6785 32.7576 77.5724 30.5907C78.4662 28.424 78.6986 26.0405 78.2401 23.7414C77.7817 21.4424 76.6532 19.3309 74.9969 17.6739L74.9965 17.6701ZM25.685 31.0942C24.3463 32.4314 22.5331 33.1833 20.6422 33.1854C18.7516 33.1874 16.936 32.4342 15.5986 31.0954C14.2611 29.7565 13.5102 27.9429 13.5113 26.0451C13.507 25.1076 13.6886 24.1785 14.0459 23.3119C14.4031 22.4453 14.9289 21.6584 15.5923 20.9971C16.2558 20.3356 17.0441 19.8128 17.9111 19.4592C18.7781 19.1055 19.7068 18.9279 20.6429 18.9369C22.532 18.9136 24.351 19.6555 25.687 20.9935C27.0229 22.3316 27.7633 24.1528 27.7403 26.0443C27.7481 27.933 27.0093 29.7487 25.685 31.0942ZM71.6887 31.0942C70.3491 32.4318 68.535 33.1836 66.6432 33.1854C64.7518 33.1845 62.9381 32.432 61.6001 31.0932C60.2622 29.7546 59.5094 27.939 59.5069 26.0451C59.5042 25.1077 59.6871 24.1791 60.0452 23.3132C60.4033 22.4472 60.9294 21.6608 61.593 20.9998C62.934 19.6648 64.7523 18.9222 66.6429 18.9378C67.5781 18.9253 68.5064 19.1007 69.3728 19.4535C70.2393 19.8064 71.0263 20.3296 71.6874 20.9921C72.3486 21.6546 72.8704 22.4431 73.2221 23.311C73.5739 24.1789 73.7483 25.1085 73.7352 26.0451C73.7445 27.9327 73.0091 29.7471 71.6887 31.0942ZM73.3769 6.84662C73.9581 7.47263 74.2878 8.29176 74.3022 9.14645C74.294 9.98204 73.9622 10.7818 73.3769 11.3774C72.764 11.9829 71.9409 12.3273 71.08 12.3384C69.3399 12.2897 67.9407 10.8885 67.8921 9.14606C67.9031 8.28408 68.2471 7.45987 68.8517 6.84623C69.4464 6.2598 70.2454 5.92766 71.08 5.91992C71.9326 5.93376 72.7498 6.26382 73.3733 6.84623L73.3769 6.84662ZM46.2255 10.945H41.4929L43.8638 6.12659L46.2255 10.945Z" fill="#DDB2B5"/>
</svg>
