<svg xmlns="http://www.w3.org/2000/svg" xmlns:xlink="http://www.w3.org/1999/xlink" width="50" zoomAndPan="magnify" viewBox="0 0 37.5 37.499999" height="50" preserveAspectRatio="xMidYMid meet" version="1.0"><defs><clipPath id="95673c18ff"><path d="M 0.839844 2.121094 L 34 2.121094 L 34 33 L 0.839844 33 Z M 0.839844 2.121094 " clip-rule="nonzero"/></clipPath></defs><g clip-path="url(#95673c18ff)"><path fill="#ffffff" d="M 27.777344 8.304688 C 24.789062 4.324219 20.992188 2.121094 16.996094 2.121094 C 13 2.121094 9.203125 4.324219 6.214844 8.304688 C 3.96875 11.300781 1.257812 15.34375 0.886719 19.601562 C 0.691406 21.792969 1.117188 24.039062 2.5 26.179688 C 3.867188 28.292969 6.097656 30.191406 9.339844 31.855469 C 11.335938 32.878906 13.511719 31.507812 13.796875 29.503906 C 13.121094 29.050781 12.503906 28.515625 11.953125 27.917969 C 10.347656 26.164062 9.066406 23.601562 9.066406 20.355469 C 9.066406 14.921875 11.875 11.261719 15.25 10.296875 C 15.699219 10.171875 16.203125 10.507812 16.253906 10.96875 C 16.480469 12.886719 17.394531 14.65625 18.828125 15.945312 C 20.265625 17.234375 22.121094 17.957031 24.050781 17.976562 C 25.121094 17.984375 24.921875 19.65625 24.921875 20.355469 C 24.921875 23.601562 23.644531 26.164062 22.039062 27.917969 C 21.464844 28.542969 20.832031 29.082031 20.191406 29.507812 C 20.445312 31.515625 22.597656 32.898438 24.597656 31.933594 C 28.027344 30.277344 30.371094 28.378906 31.789062 26.25 C 33.230469 24.089844 33.632812 21.816406 33.386719 19.601562 C 32.910156 15.335938 30 11.265625 27.777344 8.304688 Z M 27.777344 8.304688 " fill-opacity="1" fill-rule="nonzero"/></g></svg>