<svg width="21" height="22" viewBox="0 0 21 22" fill="none" xmlns="http://www.w3.org/2000/svg">
<path d="M16.9895 3.9C15.1055 1.388 12.7095 0 10.1895 0C7.66947 0 5.27347 1.388 3.38947 3.9C1.97247 5.789 0.263467 8.34 0.0274674 11.024C-0.0935326 12.408 0.174467 13.825 1.04647 15.174C1.90747 16.506 3.31447 17.705 5.36147 18.754C6.62047 19.399 7.99147 18.534 8.17047 17.271C7.74499 16.9844 7.35494 16.6484 7.00847 16.27C5.99547 15.165 5.18847 13.547 5.18847 11.5C5.18847 8.072 6.95847 5.765 9.08847 5.156C9.37047 5.076 9.68847 5.288 9.72247 5.58C9.8636 6.78899 10.4409 7.90498 11.3461 8.71871C12.2514 9.53243 13.4223 9.988 14.6395 10C15.3135 10.006 15.1895 11.06 15.1895 11.5C15.1895 13.547 14.3835 15.165 13.3695 16.27C13.0075 16.666 12.6095 17.004 12.2055 17.273C12.3655 18.541 13.7235 19.413 14.9835 18.804C17.1485 17.76 18.6265 16.561 19.5215 15.219C20.4285 13.857 20.6845 12.422 20.5285 11.025C20.2285 8.335 18.3915 5.768 16.9895 3.9Z" fill="#6A6A6A"/>
</svg>
