<svg width="24" height="24" viewBox="0 0 24 24" fill="none" xmlns="http://www.w3.org/2000/svg">
<path d="M15.24 5.0665H14.421C14.0645 5.0665 13.7225 5.2055 13.472 5.452C12.916 5.9995 11.9945 5.9585 11.492 5.364L11.304 5.1415C11.0715 4.86763 10.9429 4.52071 10.9405 4.1615L10.9375 3.5H8.5455V4.501C8.5455 5.333 8.7715 6.151 9.2005 6.871L9.227 6.916C9.49997 7.37262 9.85175 7.77721 10.266 8.111L11.445 9.0615C12.3835 9.8185 12.665 11.1015 12.125 12.164C11.9605 12.4842 11.7317 12.767 11.4528 12.9946C11.174 13.2223 10.8511 13.3899 10.5045 13.487L10.2365 13.5635C9.83824 13.6761 9.42276 13.7151 9.0105 13.6785C7.5295 13.5455 6.1225 14.375 5.573 15.7175L5.3055 16.3705C5.10408 16.8626 5.00032 17.3892 5 17.921V20.5H7.3865V17.7865C7.3865 17.3565 7.555 16.943 7.8585 16.6295C8.1202 16.3623 8.4596 16.1846 8.82827 16.1218C9.19695 16.0589 9.57606 16.1141 9.9115 16.2795L10.921 16.7765C11.376 17.0005 11.8795 17.1175 12.39 17.1175H14.098C14.799 17.1175 15.4935 16.9875 16.1445 16.7355C17.2658 16.3046 18.2144 15.5172 18.8445 14.4945L19.1545 13.9885C19.7066 13.0894 19.9992 12.0551 20 11C20 10.02 19.7465 9.0555 19.263 8.196L18.771 7.3215C18.4551 6.76192 18.0198 6.27881 17.496 5.9065L17.1875 5.6865C16.6188 5.28202 15.9379 5.06526 15.24 5.0665Z" fill="#6A6A6A"/>
<path fill-rule="evenodd" clip-rule="evenodd" d="M8.038 3H11.4545C11.4575 3.568 11.303 4.35 11.7015 4.8215C12.5755 5.8565 14.0295 4.564 15.234 4.564C17.399 4.564 18.737 6.2405 19.6985 7.951C20.796 9.9025 20.7495 12.343 19.581 14.253C18.781 15.561 17.7925 16.637 16.324 17.2065C14.1475 18.0505 11.7175 17.7325 9.6885 16.7335C8.914 16.3525 7.9135 16.8925 7.9135 17.777V21H4.5V17.911C4.50028 17.3135 4.61696 16.7218 4.8435 16.169C5.915 13.549 7.6615 13.762 10.099 13.0665C11.688 12.6135 12.6335 10.685 11.1225 9.4665C10.2525 8.765 9.3455 8.12 8.7635 7.142C7.9915 5.8455 8.038 4.4485 8.038 3Z" fill="#6A6A6A"/>
</svg>
