<svg width="32" height="32" viewBox="0 0 32 32" fill="none" xmlns="http://www.w3.org/2000/svg">
<path d="M24.1934 9.09335V22.9067C24.1934 23.96 23.0334 24.6 22.14 24.0267L11.2867 17.12C11.0967 16.9998 10.9402 16.8334 10.8317 16.6364C10.7233 16.4394 10.6664 16.2182 10.6664 15.9933C10.6664 15.7685 10.7233 15.5473 10.8317 15.3503C10.9402 15.1533 11.0967 14.9869 11.2867 14.8667L22.14 7.97335C22.3411 7.84327 22.5736 7.76989 22.813 7.76094C23.0523 7.75199 23.2896 7.8078 23.4999 7.92249C23.7101 8.03718 23.8856 8.20649 24.0076 8.41257C24.1297 8.61864 24.1938 8.85384 24.1934 9.09335Z" fill="#7189A2"/>
</svg>
