<svg width="24" height="24" viewBox="0 0 24 24" fill="none" xmlns="http://www.w3.org/2000/svg">
<path d="M12 2C11.04 2 10.12 2.14 9.25 2.39C8.80519 1.66135 8.18089 1.059 7.43679 0.640556C6.69269 0.22211 5.85368 0.00156105 5 0C2.24 0 0 2.24 0 5C0 6.8 0.96 8.37 2.39 9.25C2.14 10.12 2 11.04 2 12C2 17.52 6.48 22 12 22C17.52 22 22 17.52 22 12C22 6.48 17.52 2 12 2ZM12 20C7.59 20 4 16.41 4 12C4 11.95 4.01 11.9 4.01 11.85C6.61 10.87 8.69 8.86 9.75 6.3C10.9153 7.74574 12.4622 8.83616 14.2155 9.44769C15.9688 10.0592 17.8584 10.1674 19.67 9.76C19.88 10.47 20 11.22 20 12C20 16.41 16.41 20 12 20Z" fill="#6A6A6A"/>
<path d="M9 14.25C9.69036 14.25 10.25 13.6904 10.25 13C10.25 12.3096 9.69036 11.75 9 11.75C8.30964 11.75 7.75 12.3096 7.75 13C7.75 13.6904 8.30964 14.25 9 14.25Z" fill="#6A6A6A"/>
<path d="M15 14.25C15.6904 14.25 16.25 13.6904 16.25 13C16.25 12.3096 15.6904 11.75 15 11.75C14.3096 11.75 13.75 12.3096 13.75 13C13.75 13.6904 14.3096 14.25 15 14.25Z" fill="#6A6A6A"/>
</svg>
