<svg width="24" height="24" viewBox="0 0 24 24" fill="none" xmlns="http://www.w3.org/2000/svg">
<path fill-rule="evenodd" clip-rule="evenodd" d="M4.49969 4C4.49969 3.73478 4.60504 3.48043 4.79258 3.29289C4.98012 3.10536 5.23447 3 5.49969 3H18.4997C18.7649 3 19.0193 3.10536 19.2068 3.29289C19.3943 3.48043 19.4997 3.73478 19.4997 4V14H4.49969V4ZM5.49969 1C4.70404 1 3.94098 1.31607 3.37837 1.87868C2.81576 2.44129 2.49969 3.20435 2.49969 4V15L0.259687 20.973C0.174535 21.1999 0.145637 21.4441 0.175467 21.6846C0.205297 21.9251 0.292967 22.1549 0.430972 22.3541C0.568976 22.5533 0.753206 22.7162 0.96789 22.8287C1.18257 22.9412 1.42132 22.9999 1.66369 23H22.3347C22.5771 23.0001 22.816 22.9414 23.0308 22.829C23.2456 22.7166 23.43 22.5538 23.5681 22.3545C23.7062 22.1552 23.794 21.9255 23.8239 21.6849C23.8538 21.4443 23.8249 21.2 23.7397 20.973L21.4997 15V4C21.4997 3.20435 21.1836 2.44129 20.621 1.87868C20.0584 1.31607 19.2953 1 18.4997 1H5.49969ZM9.74969 19.5C9.74969 19.3011 9.8287 19.1103 9.96936 18.9697C10.11 18.829 10.3008 18.75 10.4997 18.75H13.4997C13.6986 18.75 13.8894 18.829 14.03 18.9697C14.1707 19.1103 14.2497 19.3011 14.2497 19.5C14.2497 19.6989 14.1707 19.8897 14.03 20.0303C13.8894 20.171 13.6986 20.25 13.4997 20.25H10.4997C10.3008 20.25 10.11 20.171 9.96936 20.0303C9.8287 19.8897 9.74969 19.6989 9.74969 19.5ZM14.4997 7C14.4997 7.66304 14.2363 8.29893 13.7675 8.76777C13.2986 9.23661 12.6627 9.5 11.9997 9.5C11.3366 9.5 10.7008 9.23661 10.2319 8.76777C9.76308 8.29893 9.49969 7.66304 9.49969 7C9.49969 6.33696 9.76308 5.70107 10.2319 5.23223C10.7008 4.76339 11.3366 4.5 11.9997 4.5C12.6627 4.5 13.2986 4.76339 13.7675 5.23223C14.2363 5.70107 14.4997 6.33696 14.4997 7ZM8.30469 11.772C9.35878 10.9455 10.6602 10.4975 11.9997 10.5C13.3937 10.5 14.6757 10.975 15.6947 11.772C16.0337 12.037 15.8217 12.532 15.3917 12.532H8.60769C8.17769 12.532 7.96569 12.037 8.30469 11.772Z" fill="#6A6A6A"/>
</svg>
