<svg width="24" height="24" viewBox="0 0 24 24" fill="none" xmlns="http://www.w3.org/2000/svg">
<g clip-path="url(#clip0_1815_666)">
<path d="M11.9992 14.91C13.0601 14.91 14.0775 14.4886 14.8277 13.7384C15.5778 12.9883 15.9992 11.9709 15.9992 10.91C15.9717 10.0652 15.7346 9.24046 15.3092 8.51C14.6392 7.14001 13.9492 5.73 15.6792 1.51C15.7874 1.3047 15.8207 1.06818 15.7736 0.840975C15.7265 0.613768 15.6019 0.410017 15.421 0.264631C15.2402 0.119245 15.0144 0.0412746 14.7824 0.0440795C14.5504 0.0468843 14.3265 0.13029 14.1492 0.280005C12.4492 1.55 7.24925 5.41 7.99925 11C8.06942 12.0292 8.51593 12.9966 9.25365 13.7178C9.99137 14.4389 10.9687 14.8633 11.9992 14.91Z" fill="white"/>
<path d="M22.5 10.91H18.5C18.2449 10.9095 17.9992 11.0066 17.8133 11.1813C17.6274 11.3561 17.5153 11.5953 17.5 11.85C17.5 13.3087 16.9205 14.7076 15.8891 15.7391C14.8576 16.7705 13.4587 17.35 12 17.35C10.5413 17.35 9.14236 16.7705 8.11091 15.7391C7.07946 14.7076 6.5 13.3087 6.5 11.85C6.48469 11.5953 6.37261 11.3561 6.18671 11.1813C6.00081 11.0066 5.75514 10.9095 5.5 10.91H1.5C1.10218 10.91 0.720644 11.068 0.43934 11.3493C0.158035 11.6306 0 12.0122 0 12.41L0 22.41C0 22.8078 0.158035 23.1893 0.43934 23.4706C0.720644 23.7519 1.10218 23.91 1.5 23.91H22.5C22.8978 23.91 23.2794 23.7519 23.5607 23.4706C23.842 23.1893 24 22.8078 24 22.41V12.41C24 12.0122 23.842 11.6306 23.5607 11.3493C23.2794 11.068 22.8978 10.91 22.5 10.91ZM1.5 15.41C1.5 15.1448 1.60536 14.8904 1.79289 14.7029C1.98043 14.5153 2.23478 14.41 2.5 14.41C2.76522 14.41 3.01957 14.5153 3.20711 14.7029C3.39464 14.8904 3.5 15.1448 3.5 15.41C3.5 15.6752 3.39464 15.9295 3.20711 16.1171C3.01957 16.3046 2.76522 16.41 2.5 16.41C2.23478 16.41 1.98043 16.3046 1.79289 16.1171C1.60536 15.9295 1.5 15.6752 1.5 15.41ZM3.5 22.41C3.23478 22.41 2.98043 22.3046 2.79289 22.1171C2.60536 21.9295 2.5 21.6752 2.5 21.41C2.5 21.1448 2.60536 20.8904 2.79289 20.7029C2.98043 20.5153 3.23478 20.41 3.5 20.41C3.76522 20.41 4.01957 20.5153 4.20711 20.7029C4.39464 20.8904 4.5 21.1448 4.5 21.41C4.5 21.6752 4.39464 21.9295 4.20711 22.1171C4.01957 22.3046 3.76522 22.41 3.5 22.41ZM7 18.9C6.73478 18.9 6.48043 18.7946 6.29289 18.6071C6.10536 18.4195 6 18.1652 6 17.9C6 17.6348 6.10536 17.3804 6.29289 17.1929C6.48043 17.0053 6.73478 16.9 7 16.9C7.26522 16.9 7.51957 17.0053 7.70711 17.1929C7.89464 17.3804 8 17.6348 8 17.9C8 18.1652 7.89464 18.4195 7.70711 18.6071C7.51957 18.7946 7.26522 18.9 7 18.9ZM9 22.41C8.73478 22.41 8.48043 22.3046 8.29289 22.1171C8.10536 21.9295 8 21.6752 8 21.41C8 21.1448 8.10536 20.8904 8.29289 20.7029C8.48043 20.5153 8.73478 20.41 9 20.41C9.26522 20.41 9.51957 20.5153 9.70711 20.7029C9.89464 20.8904 10 21.1448 10 21.41C10 21.6752 9.89464 21.9295 9.70711 22.1171C9.51957 22.3046 9.26522 22.41 9 22.41ZM14.5 22.41C14.2348 22.41 13.9804 22.3046 13.7929 22.1171C13.6054 21.9295 13.5 21.6752 13.5 21.41C13.5 21.1448 13.6054 20.8904 13.7929 20.7029C13.9804 20.5153 14.2348 20.41 14.5 20.41C14.7652 20.41 15.0196 20.5153 15.2071 20.7029C15.3946 20.8904 15.5 21.1448 15.5 21.41C15.5 21.6752 15.3946 21.9295 15.2071 22.1171C15.0196 22.3046 14.7652 22.41 14.5 22.41ZM17 18.9C16.7348 18.9 16.4804 18.7946 16.2929 18.6071C16.1054 18.4195 16 18.1652 16 17.9C16 17.6348 16.1054 17.3804 16.2929 17.1929C16.4804 17.0053 16.7348 16.9 17 16.9C17.2652 16.9 17.5196 17.0053 17.7071 17.1929C17.8946 17.3804 18 17.6348 18 17.9C18 18.1652 17.8946 18.4195 17.7071 18.6071C17.5196 18.7946 17.2652 18.9 17 18.9ZM20 22.41C19.7348 22.41 19.4804 22.3046 19.2929 22.1171C19.1054 21.9295 19 21.6752 19 21.41C19 21.1448 19.1054 20.8904 19.2929 20.7029C19.4804 20.5153 19.7348 20.41 20 20.41C20.2652 20.41 20.5196 20.5153 20.7071 20.7029C20.8946 20.8904 21 21.1448 21 21.41C21 21.6752 20.8946 21.9295 20.7071 22.1171C20.5196 22.3046 20.2652 22.41 20 22.41ZM21.5 16.41C21.2348 16.41 20.9804 16.3046 20.7929 16.1171C20.6054 15.9295 20.5 15.6752 20.5 15.41C20.5 15.1448 20.6054 14.8904 20.7929 14.7029C20.9804 14.5153 21.2348 14.41 21.5 14.41C21.7652 14.41 22.0196 14.5153 22.2071 14.7029C22.3946 14.8904 22.5 15.1448 22.5 15.41C22.5 15.6752 22.3946 15.9295 22.2071 16.1171C22.0196 16.3046 21.7652 16.41 21.5 16.41Z" fill="white"/>
</g>
<defs>
<clipPath id="clip0_1815_666">
<rect width="24" height="24" fill="white"/>
</clipPath>
</defs>
</svg>
