<svg width="36" height="36" viewBox="0 0 36 36" fill="none" xmlns="http://www.w3.org/2000/svg">
<path d="M15.1716 2.82842C16.7337 1.26633 19.2663 1.26633 20.8284 2.82843L33.1716 15.1716C34.7337 16.7337 34.7337 19.2663 33.1716 20.8284L20.8284 33.1716C19.2663 34.7337 16.7337 34.7337 15.1716 33.1716L2.82842 20.8284C1.26633 19.2663 1.26633 16.7337 2.82843 15.1716L15.1716 2.82842Z" fill="#95BCAA"/>
<g clip-path="url(#clip0_1537_1910)">
<path d="M24.5581 21.6413C24.2628 20.9433 23.8768 20.308 23.5341 19.7453C23.4114 19.5426 23.2941 19.35 23.1888 19.1666H12.8128C12.7074 19.35 12.5901 19.5426 12.4674 19.7446C12.1248 20.3086 11.7388 20.9433 11.4434 21.6413C11.0356 22.5975 10.8282 23.6271 10.8341 24.6666C10.8341 24.7992 10.8868 24.9264 10.9806 25.0202C11.0743 25.1139 11.2015 25.1666 11.3341 25.1666C11.4667 25.1666 11.5939 25.1139 11.6877 25.0202C11.7814 24.9264 11.8341 24.7992 11.8341 24.6666C11.8341 23.6733 12.0274 22.8693 12.3068 22.1706C15.9028 22.2686 17.2801 24.0846 17.5268 24.8246C17.5601 24.9239 17.6238 25.0103 17.7089 25.0714C17.7939 25.1326 17.896 25.1655 18.0008 25.1655C18.1055 25.1655 18.2076 25.1326 18.2927 25.0714C18.3777 25.0103 18.4414 24.9239 18.4748 24.8246C18.7214 24.0846 20.0988 22.2686 23.6948 22.1713C24.0124 22.9646 24.1729 23.8121 24.1674 24.6666C24.1674 24.7992 24.2201 24.9264 24.3139 25.0202C24.4077 25.1139 24.5348 25.1666 24.6674 25.1666C24.8 25.1666 24.9272 25.1139 25.021 25.0202C25.1148 24.9264 25.1674 24.7992 25.1674 24.6666C25.1674 23.456 24.9141 22.48 24.5581 21.6413Z" fill="white"/>
<path opacity="0.5" d="M13.1262 11.1374C13.0741 11.0154 12.9757 10.9191 12.8526 10.8696C12.7295 10.8202 12.5918 10.8216 12.4698 10.8737C12.3478 10.9258 12.2515 11.0242 12.2021 11.1473C12.1526 11.2703 12.1541 11.408 12.2062 11.53L12.2068 11.5307L12.2095 11.5367L12.2195 11.5607L12.2595 11.6594C12.4817 12.2189 12.6801 12.7877 12.8542 13.364C13.1828 14.4527 13.4995 15.8267 13.4995 17.048C13.497 17.4301 13.4275 17.8087 13.2942 18.1667H22.7048C22.5715 17.8087 22.502 17.4301 22.4995 17.048C22.4995 15.8267 22.8168 14.4527 23.1448 13.364C23.3189 12.7877 23.5173 12.2189 23.7395 11.6594L23.7795 11.5607L23.7902 11.5367L23.7922 11.5307L23.7928 11.5294C23.8202 11.4687 23.8352 11.4032 23.8369 11.3366C23.8386 11.2701 23.827 11.2039 23.8027 11.1419C23.7785 11.0799 23.7421 11.0233 23.6958 10.9756C23.6494 10.9278 23.594 10.8898 23.5327 10.8637C23.4715 10.8377 23.4056 10.8241 23.3391 10.8239C23.2725 10.8236 23.2066 10.8366 23.1451 10.8621C23.0836 10.8877 23.0279 10.9253 22.9811 10.9726C22.9344 11.02 22.8976 11.0762 22.8728 11.138L22.8715 11.1407L22.8682 11.1487L22.8562 11.1774L22.8115 11.286C22.5786 11.8735 22.3705 12.4705 22.1875 13.0754C21.8675 14.1387 21.5362 15.5274 21.5022 16.8334H14.4968C14.4635 15.5267 14.1322 14.1387 13.8115 13.0754C13.6285 12.4705 13.4203 11.8735 13.1875 11.286L13.1428 11.1774L13.1308 11.1487L13.1275 11.1407L13.1268 11.1387L13.1262 11.1374Z" fill="white"/>
</g>
<defs>
<clipPath id="clip0_1537_1910">
<rect width="16" height="16" fill="white" transform="translate(10 10)"/>
</clipPath>
</defs>
</svg>
